<?xml version="1.0" encoding="utf-8"?>
<!-- Generator: Adobe Illustrator 19.1.0, SVG Export Plug-In . SVG Version: 6.00 Build 0)  -->
<svg version="1.1" id="Layer_1" xmlns="http://www.w3.org/2000/svg" xmlns:xlink="http://www.w3.org/1999/xlink" x="0px" y="0px"
	 viewBox="0 0 175 175" style="enable-background:new 0 0 175 175;" xml:space="preserve">
<style type="text/css">
	.st0{fill:#332532;}
</style>
<path class="st0" d="M2.7,36.5c0,0,11.9,23.4,18,35.6s14.6,27.7,14.6,27.7s0.7,2.4,3.4,1.4c2.7-1,1.4-4.1,1.4-4.1s-1.2-4.5-4.5-10.7
	c-3.3-6.2-3.8-6.2-7.2-9.4c-8.4-6-3.1-11.3-3.1-11.3s-3.8-12.4-10.5-20.8S2.7,36.5,2.7,36.5z"/>
<path class="st0" d="M169.4,36.8c-3.4-2.5-15.6,6.9-19,13.1C147,56.2,140,65,136.3,69c-3.7,4-7.2,6.8-8.3,7.1
	c-0.5,0.1-0.8,0-1.1-0.1l-1.3-1.3c-1.9-1.9-5-2-7-0.1l-12.2,11.8c-1.9,1.9-2,5-0.1,6.9l6.7,6.9c1.9,1.9,5,2,7,0.1l12.2-11.8
	c1.9-1.9,2-5,0.1-6.9l-4.1-4.2l2.9,3c0,0-0.3-0.3-0.3-1.5c0-1.2,2.8-3.3,7-7.8s15.8-12.1,19.7-14.2c3.9-2.1,7.1-6,9.7-9.1
	S172.7,39.3,169.4,36.8z M112.5,89.3c-0.6,0.5-1.5,0.5-2,0c-0.6-0.6-0.5-1.5,0-2l9.1-8.8c0.6-0.5,1.5-0.5,2,0c0.6,0.6,0.5,1.5,0,2
	L112.5,89.3z M115.9,92.7c-0.6,0.5-1.5,0.5-2,0c-0.6-0.6-0.5-1.5,0-2l9.1-8.8c0.6-0.5,1.5-0.5,2,0c0.6,0.6,0.5,1.5,0,2L115.9,92.7z
	 M128.3,87.4l-9.1,8.8c-0.6,0.5-1.5,0.5-2,0c-0.6-0.6-0.5-1.5,0-2l9.1-8.8c0.6-0.5,1.5-0.5,2,0C128.9,86,128.9,86.9,128.3,87.4z"/>
<path class="st0" d="M168.5,104.7c-0.4-0.7-4.7-1.3-9.3-2.1c-12.5-2.2-25-2.3-33.4-0.7c-6,1.1-9.4,3.1-10.9,4.2
	c-5.9-9.2-20.3-15.7-37-15.7c-22.1,0-39.9,11.2-39.9,25.1s17.9,25.1,39.9,25.1s39.9-11.2,39.9-25.1c0-1.5-0.2-3-0.6-4.4
	c1.7-0.8,6.4-2.5,17.2-2.5c14.4,0,13.2,1.8,21.2,2.6s8.7,0.3,11.3-0.9C168.7,109.5,169.5,106.5,168.5,104.7z M78.2,98.6
	c-16.3,0-30.1,7.1-35.1,17c2.2-12.4,16.7-21.9,34.2-21.9c14.9,0,27.6,6.9,32.4,16.6C103,103.3,91.4,98.6,78.2,98.6z M161.2,108.4
	c-2.1,0-3.8-0.8-3.8-1.8c0-1,1.7-1.8,3.8-1.8c2.1,0,3.8,0.8,3.8,1.8C165,107.6,163.3,108.4,161.2,108.4z"/>
<path class="st0" d="M52.1,56.4c0,0-2.7,1-3.2,2c-0.5,1-0.6,2.1-0.6,2.1S50,61.6,51,63c1,1.4,3.9,8.7,6.4,11.4
	c2.5,2.7,6.1,6.4,10.3,7.4c4.2,1,6.7,0.9,6.7,0.9s-6.7,3.3-11.9,2.8c-5.2-0.5-10.4-2.6-14.8-9.1c-4.4-6.5-4.4-10.4-3.4-12.1
	c1-1.7,2.4-3.2,2.4-3.2s-0.3-1.7,1.5-3.5c1.8-1.8,2.5-2.2,2.5-2.2L52.1,56.4z"/>
<path class="st0" d="M60.9,48.5c0,0-4.3,2.4-5.2,5.6c-1.3,4.6,1.2,8.4,1.2,8.4s-0.5-4.2,0.7-7c1-2.4,2.3-2.8,2.3-2.8s-0.5,1-0.8,3.7
	s0,6.1,0,6.1s1.7-1.9,2.7-5.2C62.8,53.9,60.9,48.5,60.9,48.5z"/>
<path class="st0" d="M93.6,64.8c0,0,5.1-0.9,7.1-3.8c2.9-4.1,1.7-8.8,1.7-8.8s-1,4.4-3.1,6.7c-1.9,2.1-3.3,2-3.3,2s0.9-0.8,2.1-3.4
	c1.2-2.6,2.1-6.1,2.1-6.1s-2.4,1.3-4.5,4.2C93.7,58.7,93.6,64.8,93.6,64.8z"/>
<path class="st0" d="M76.5,54.2c-1.1-0.3-8.5-3.7-11.7,5c-0.7,1.8-2.2,8.7,2.9,13.8c5.1,5.1,16,7.6,21.4-3.1
	c2.8-5.6,0.7-10.8-1.3-13.3C84.2,52.2,81.1,55.4,76.5,54.2z"/>
<path class="st0" d="M76.3,52.2c0,0-1.3-0.7-2.6-1.6c-1.3-0.9-2.2-0.5-2.2-0.5s1.4,1.5,2.9,2.4c1.5,0.9,2.1,1,4.2,1
	c3.3,0,5.7-2.7,5.7-2.7s-1-0.5-2,0c-1,0.5-1.5,1.3-1.5,1.3s-0.2-0.6,0.5-1.2c0.7-0.6,0-2.2,0-2.2s-0.6,1.5-1.2,2
	c-0.6,0.5-1.5,1.2-1.5,1.2s0.2-0.3,0.3-1.7S78,48,78,48s0.2,1.2,0,2c-0.2,0.7-0.6,1.5-0.6,1.5s-0.8-0.1-1.7-1.2
	c-0.9-1-1.2-2.1-1.2-2.1s-0.2,0.7,0,1.6S76.3,52.2,76.3,52.2z"/>
<path class="st0" d="M107.7,64.4c0,0-1.4-1.2-2.3-1.3s-8.6,6.1-11.7,9.2c-3.1,3.1-10.7,10.6-10.3,11.5s8-2.4,10.9-3.8
	s15.2-8,15.8-9.4c0.6-1.5,0-3.5,0-3.5s1.5-1.3,3.3-1.7c1.8-0.4,3.9-0.5,3.9-0.5V63c0,0-2.1,0.5-3,0.9c-0.9,0.4-2.7,0.9-2.7,0.9
	s2.8-2.2,4.1-2.4c1.3-0.2,2.3-0.4,2.3-0.4l0.2-2c0,0-2.2,0.1-3.7,1.1c-1.4,0.9-3.4,2.3-3.4,2.3s1.6-2,2.7-3.4c1-1.4,1.2-2.1,1.2-2.1
	l-1.6-0.5c0,0-0.5,1.5-1.6,3.1C110.4,62.1,107.7,64.4,107.7,64.4z"/>
</svg>
